<?xml version="1.0" ?><!DOCTYPE svg  PUBLIC '-//W3C//DTD SVG 1.1//EN'  'http://www.w3.org/Graphics/SVG/1.1/DTD/svg11.dtd'><svg enable-background="new 0 0 128 128" id="Слой_1" version="1.1" viewBox="0 0 128 128" xml:space="preserve" xmlns="http://www.w3.org/2000/svg" xmlns:xlink="http://www.w3.org/1999/xlink"><path d="M125.3,58.8c-0.1-0.8-0.7-1.4-1.6-1.4c0,0-0.4,0-0.4,0c-0.1,0-0.2,0-0.4,0c-7.4,0-13.5-6.1-13.5-13.5  c0-1.1,0.1-2.1,0.4-3.3c0.1-0.6-0.1-1.2-0.6-1.6c-0.3-0.2-0.6-0.3-0.9-0.3c-0.3,0-0.6,0.1-0.8,0.3c-2.3,1.5-4.9,2.4-7.6,2.4  c-7.4,0-13.5-6.1-13.5-13.5c0-2.7,0.8-5.4,2.4-7.6c0.3-0.5,0.3-1.2,0-1.7c-0.3-0.4-0.7-0.6-1.2-0.6c-0.1,0-0.2,0-0.4,0  c-1.1,0.3-2.2,0.4-3.3,0.4c-7.4,0-13.5-6.1-13.5-13.5c0-0.1,0-0.2,0-0.4l0-0.3c0-0.8-0.6-1.5-1.4-1.6c-1.9-0.2-3.6-0.2-5.2-0.2  C30.1,2.5,2.5,30.1,2.5,64s27.6,61.5,61.5,61.5s61.5-27.6,61.5-61.5C125.5,62.4,125.4,60.7,125.3,58.8z M64,85.5  c-11.9,0-21.5-9.6-21.5-21.5S52.1,42.5,64,42.5S85.5,52.1,85.5,64S75.9,85.5,64,85.5z" fill="#FBBB8F"/><path d="M17.5,64c0-30.9,22.9-56.5,52.6-60.8c-0.2-0.2-0.6-0.4-0.9-0.4c-1.9-0.2-3.6-0.2-5.2-0.2  C30.1,2.5,2.5,30.1,2.5,64s27.6,61.5,61.5,61.5c2.5,0,5-0.2,7.5-0.5C41.1,121.3,17.5,95.4,17.5,64z" opacity="0.1"/><path d="M109.3,39.2c-0.3-0.2-0.6-0.3-0.9-0.3c-0.3,0-0.6,0.1-0.8,0.3c0,0-0.1,0-0.1,0.1c0.8,0.5,1.6,0.9,2.4,1.3  C110,40,109.8,39.5,109.3,39.2z" fill="#E9AB82"/><path d="M66.5,42.7c10.7,1.3,19,10.3,19,21.3s-8.3,20.1-19,21.3c0.8,0.1,1.6,0.2,2.5,0.2c11.9,0,21.5-9.6,21.5-21.5  S80.9,42.5,69,42.5C68.2,42.5,67.3,42.6,66.5,42.7z" opacity="0.1"/><path d="M24,66.5c1.4,0,2.5-1.1,2.5-2.5c0-20.7,16.8-37.5,37.5-37.5c1.4,0,2.5-1.1,2.5-2.5s-1.1-2.5-2.5-2.5  c-23.4,0-42.5,19.1-42.5,42.5C21.5,65.4,22.6,66.5,24,66.5z" fill="#62355C"/><path d="M41.5,64c0,12.4,10.1,22.5,22.5,22.5S86.5,76.4,86.5,64S76.4,41.5,64,41.5S41.5,51.6,41.5,64z M81.5,64  c0,9.6-7.9,17.5-17.5,17.5S46.5,73.6,46.5,64S54.4,46.5,64,46.5S81.5,54.4,81.5,64z" fill="#62355C"/><path d="M64,126.5c34.5,0,62.5-28,62.5-62.5c0-1.6-0.1-3.3-0.2-5.2c-0.1-1.3-1.3-2.4-2.6-2.3l-0.3,0  c-0.1,0-0.2,0-0.3,0c-6.9,0-12.5-5.6-12.5-12.5c0-1,0.1-2,0.4-3c0.2-1-0.1-2.1-1-2.7c-0.9-0.6-2-0.6-2.8,0c-2.1,1.4-4.5,2.2-7,2.2  c-6.9,0-12.5-5.6-12.5-12.5c0-2.5,0.8-5,2.2-7c0.6-0.9,0.6-2,0-2.8c-0.6-0.9-1.6-1.2-2.7-1c-1,0.3-2,0.4-3,0.4  c-6.9,0-12.5-5.6-12.5-12.5c0-0.1,0-0.2,0-0.3l0-0.3c0.1-1.3-0.9-2.5-2.3-2.6c-1.9-0.2-3.6-0.2-5.2-0.2C29.5,1.5,1.5,29.5,1.5,64  S29.5,126.5,64,126.5z M64,6.5c0.8,0,1.7,0,2.6,0.1c0.8,8.7,8,15.6,16.8,15.9c-0.6,1.8-0.9,3.6-0.9,5.5c0,9.6,7.9,17.5,17.5,17.5  c1.9,0,3.7-0.3,5.5-0.9c0.3,8.8,7.2,16,15.9,16.8c0,0.9,0.1,1.7,0.1,2.6c0,31.7-25.8,57.5-57.5,57.5S6.5,95.7,6.5,64  S32.3,6.5,64,6.5z" fill="#62355C"/><path d="M29.5,84.4c1.1,0,2.2-0.8,2.4-1.9c0.3-1.3-0.5-2.7-1.9-3l-7-1.6c-1.3-0.3-2.7,0.5-3,1.9  c-0.3,1.3,0.5,2.7,1.9,3l7,1.6C29.1,84.4,29.3,84.4,29.5,84.4z" fill="#95D6DD"/><path d="M43.2,96.7c-0.7-1.2-2.2-1.6-3.4-0.9c-1.2,0.7-1.6,2.2-0.9,3.4l3,5.3c0.5,0.8,1.3,1.3,2.2,1.3  c0.4,0,0.8-0.1,1.2-0.3c1.2-0.7,1.6-2.2,0.9-3.4L43.2,96.7z" fill="#F0EF98"/><path d="M71.7,107.1l-6.2,3.8c-1.2,0.7-1.5,2.3-0.8,3.4c0.5,0.8,1.3,1.2,2.1,1.2c0.4,0,0.9-0.1,1.3-0.4l6.2-3.8  c1.2-0.7,1.5-2.3,0.8-3.4C74.4,106.8,72.9,106.4,71.7,107.1z" fill="#2EAE9D"/><path d="M80.2,92.9c0,1.4,1.1,2.5,2.4,2.6l7.5,0.2c0,0,0,0,0.1,0c1.3,0,2.5-1.1,2.5-2.4c0-1.4-1.1-2.5-2.4-2.6  l-7.5-0.2C81.4,90.5,80.2,91.6,80.2,92.9z" fill="#F37865"/><path d="M103.5,78.2c-1.1,0.9-1.3,2.4-0.4,3.5l3.7,4.7c0.5,0.6,1.2,0.9,2,0.9c0.5,0,1.1-0.2,1.6-0.5  c1.1-0.9,1.3-2.4,0.4-3.5l-3.7-4.7C106.2,77.5,104.6,77.3,103.5,78.2z" fill="#F0EF98"/><path d="M95.7,60.6l7.5,0.5c0.1,0,0.1,0,0.2,0c1.3,0,2.4-1,2.5-2.3c0.1-1.4-1-2.6-2.3-2.6L96,55.6  c-1.4-0.1-2.6,1-2.6,2.3C93.2,59.3,94.3,60.5,95.7,60.6z" fill="#FFFFFF"/></svg>