<?xml version="1.0" standalone="no"?>
<!DOCTYPE svg PUBLIC "-//W3C//DTD SVG 20010904//EN"
 "http://www.w3.org/TR/2001/REC-SVG-20010904/DTD/svg10.dtd">
<svg version="1.0" xmlns="http://www.w3.org/2000/svg"
 width="587.000000pt" height="488.000000pt" viewBox="0 0 587.000000 488.000000"
 preserveAspectRatio="xMidYMid meet">

<g transform="translate(0.000000,488.000000) scale(0.100000,-0.100000)"
fill="#000000" stroke="none">
<path d="M2968 4486 c-48 -13 -61 -21 -112 -65 l-29 -26 7 38 c8 43 2 59 -19
51 -20 -8 -35 -67 -35 -134 0 -31 -4 -60 -9 -65 -14 -15 -31 -110 -31 -171 0
-100 41 -153 96 -123 34 18 39 63 20 192 -22 157 -22 162 -8 188 19 36 88 80
132 86 34 5 43 1 71 -26 29 -29 31 -36 25 -77 -10 -77 -18 -85 -81 -78 -67 8
-113 -8 -122 -44 -14 -57 44 -78 122 -43 l46 20 9 -25 c15 -38 12 -66 -10
-102 -36 -58 -122 -94 -137 -55 -4 10 2 23 17 35 28 23 19 35 -15 20 -27 -13
-35 -58 -13 -80 16 -16 81 -15 123 2 72 31 115 145 78 208 -19 32 -19 34 -1
63 30 50 40 100 28 145 -17 65 -72 88 -152 66z m-162 -308 c15 -85 18 -165 5
-172 -16 -10 -43 33 -48 78 -5 45 15 182 25 172 3 -3 11 -38 18 -78z m193 63
c21 -13 5 -29 -41 -41 -33 -9 -44 -9 -55 3 -13 12 -12 16 2 31 18 17 71 21 94
7z"/>
<path d="M3754 4451 c-52 -24 -86 -69 -119 -156 -46 -121 -55 -295 -15 -295
11 0 23 16 35 48 20 52 56 112 67 112 14 0 36 -55 43 -107 7 -51 32 -88 65
-94 23 -5 70 10 70 22 0 7 -9 9 -21 6 -30 -8 -56 24 -65 80 -8 56 -19 80 -48
105 l-21 18 30 26 c40 34 64 43 95 34 35 -9 39 -48 8 -72 l-23 -18 22 0 c33 0
65 39 61 75 -4 43 -43 63 -95 47 -47 -14 -147 -101 -173 -151 l-19 -36 -1 46
c0 90 54 229 109 276 53 46 131 16 95 -35 -11 -15 -26 -22 -50 -22 -19 0 -34
-4 -34 -10 0 -5 17 -10 38 -10 72 0 107 69 56 109 -33 26 -57 26 -110 2z"/>
<path d="M3324 4331 c-130 -59 -198 -205 -126 -274 67 -64 160 -38 237 68 13
18 14 15 15 -43 0 -60 1 -63 23 -60 21 3 22 9 28 108 3 58 9 131 14 164 7 57
7 58 -14 47 -11 -7 -21 -17 -21 -23 0 -7 -9 -2 -20 10 -26 28 -79 29 -136 3z
m114 -50 c2 -7 -5 -15 -17 -18 -12 -3 -21 -9 -21 -14 0 -13 34 -11 48 3 22 22
14 -19 -14 -77 -35 -72 -72 -105 -122 -112 -34 -5 -44 -1 -66 20 -18 18 -26
37 -26 59 0 43 37 116 72 141 53 39 133 37 146 -2z"/>
<path d="M2295 4274 c-61 -34 -95 -94 -95 -167 0 -52 20 -105 49 -131 30 -27
109 -33 154 -11 80 38 118 145 78 223 -12 23 -26 42 -31 42 -5 0 -21 12 -35
26 -32 32 -81 39 -120 18z m85 -33 c0 -15 -28 -33 -47 -29 -27 4 -43 -10 -43
-38 0 -31 33 -64 64 -64 28 0 76 54 76 85 0 17 1 17 20 0 31 -28 28 -118 -5
-161 -41 -54 -138 -58 -171 -8 -61 93 -21 224 68 224 21 0 38 -4 38 -9z m11
-74 c-13 -34 -50 -46 -68 -21 -17 24 -17 44 2 44 8 0 15 -9 15 -20 0 -25 18
-26 27 -2 9 25 27 46 30 35 2 -6 -1 -22 -6 -36z"/>
<path d="M2420 4085 c0 -8 4 -15 10 -15 5 0 7 7 4 15 -4 8 -8 15 -10 15 -2 0
-4 -7 -4 -15z"/>
<path d="M4075 4218 c-48 -17 -94 -56 -116 -100 -49 -96 2 -198 105 -213 55
-9 130 15 147 47 13 25 2 39 -14 17 -32 -44 -99 -51 -152 -16 -41 26 -60 73
-51 123 8 38 13 40 42 20 35 -25 103 -38 135 -27 83 29 90 115 14 147 -40 16
-68 17 -110 2z m99 -61 c14 -38 -2 -61 -44 -65 -44 -5 -102 26 -98 53 4 27 45
46 93 43 33 -3 41 -7 49 -31z"/>
<path d="M4128 4133 c7 -3 16 -2 19 1 4 3 -2 6 -13 5 -11 0 -14 -3 -6 -6z"/>
<path d="M2045 4210 c-3 -5 1 -26 10 -46 8 -20 15 -62 15 -93 0 -111 -33 -171
-95 -171 -59 0 -95 77 -95 203 0 53 -3 67 -15 67 -24 0 -38 -49 -31 -115 8
-83 22 -129 52 -165 21 -25 33 -30 69 -30 28 0 51 7 70 22 31 24 64 90 65 128
1 25 1 25 10 3 17 -41 23 -168 11 -206 -14 -42 -56 -87 -82 -87 -48 0 -43 72
7 90 31 12 32 34 2 25 -30 -9 -78 -60 -78 -84 0 -28 33 -51 71 -51 42 0 92 43
115 99 33 77 2 316 -50 396 -17 25 -40 33 -51 15z"/>
<path d="M2011 4154 c0 -11 3 -14 6 -6 3 7 2 16 -1 19 -3 4 -6 -2 -5 -13z"/>
<path d="M2145 4160 c-3 -6 1 -7 9 -4 18 7 21 14 7 14 -6 0 -13 -4 -16 -10z"/>
<path d="M3006 4143 c-4 -9 -2 -21 4 -27 7 -7 10 -2 10 17 0 31 -5 34 -14 10z"/>
<path d="M4347 4112 c-30 -56 -97 -227 -97 -249 0 -9 8 -13 22 -11 16 2 27 16
40 48 11 30 17 38 17 23 1 -22 44 -53 74 -53 9 0 19 -18 26 -44 12 -50 41 -76
83 -76 36 0 36 15 -1 28 -20 7 -32 21 -41 47 -7 20 -10 37 -8 39 1 1 26 7 53
14 83 21 142 101 116 158 -24 55 -131 82 -207 54 -33 -13 -37 -9 -26 21 5 13
7 30 5 37 -9 25 -30 11 -56 -36z m201 -58 c58 -40 43 -107 -32 -144 -54 -26
-56 -25 -56 8 0 16 -10 39 -21 51 -18 19 -29 22 -60 18 -32 -4 -37 -2 -32 12
3 9 11 22 17 30 30 39 142 54 184 25z m-140 -96 c11 -11 18 -68 8 -68 -22 0
-66 26 -66 39 0 19 19 41 35 41 6 0 16 -5 23 -12z"/>
<path d="M2905 4130 c-3 -5 -1 -10 4 -10 6 0 11 5 11 10 0 6 -2 10 -4 10 -3 0
-8 -4 -11 -10z"/>
<path d="M1681 4107 c-7 -19 -8 -42 -1 -70 14 -62 12 -163 -4 -202 -24 -56
-79 -72 -115 -34 -33 35 -60 103 -68 170 -9 68 -26 85 -44 45 -9 -19 -8 -41 6
-103 37 -156 105 -211 193 -155 28 18 62 82 62 117 0 39 17 30 36 -20 11 -30
23 -45 35 -45 24 0 29 20 12 54 -20 38 -73 197 -73 217 0 8 -6 24 -14 35 -14
18 -15 18 -25 -9z"/>
<path d="M1214 4068 c38 -131 48 -186 44 -260 -3 -69 -6 -82 -27 -99 -76 -62
-180 45 -206 211 -9 61 -15 80 -25 80 -4 0 -10 -12 -12 -27 -3 -16 -15 -66
-28 -111 -14 -56 -20 -96 -15 -119 7 -39 49 -88 66 -77 7 4 2 15 -15 31 -26
24 -34 68 -20 121 7 24 24 30 24 9 0 -26 62 -137 87 -157 18 -14 41 -20 75
-20 43 0 54 4 78 30 51 54 59 116 35 260 -5 28 3 19 35 -44 70 -133 100 -299
66 -365 -17 -31 -58 -53 -83 -44 -46 17 -44 65 3 110 38 35 41 53 6 34 -59
-31 -82 -119 -42 -156 41 -37 126 2 156 72 18 43 18 144 -1 218 -27 106 -122
283 -170 317 -22 16 -37 8 -31 -14z"/>
<path d="M1771 4051 c-2 -25 31 -131 41 -131 6 0 7 8 3 18 -4 9 -9 32 -12 50
-3 17 -9 32 -14 32 -4 0 -10 10 -12 23 -2 12 -5 16 -6 8z"/>
<path d="M2019 4022 c-3 -20 -2 -29 4 -23 5 5 7 19 5 32 -3 20 -5 19 -9 -9z"/>
<path d="M4743 3985 c-35 -25 -100 -130 -113 -184 -10 -42 -9 -55 5 -84 13
-28 25 -37 61 -46 39 -10 50 -9 87 8 23 11 52 28 65 37 46 34 8 -43 -61 -121
-64 -73 -141 -93 -168 -43 -16 30 6 48 57 48 44 0 58 12 28 24 -42 16 -105 -5
-118 -40 -8 -22 13 -60 41 -73 96 -44 212 36 290 199 52 108 66 155 59 186
-10 39 -23 28 -59 -49 -34 -74 -83 -124 -141 -147 -39 -14 -53 -13 -76 10 -40
40 -16 136 57 226 47 58 39 86 -14 49z"/>
<path d="M1401 3925 c8 -45 27 -90 34 -83 2 2 -2 22 -10 43 -8 22 -14 48 -15
57 0 9 -4 19 -9 22 -5 3 -5 -14 0 -39z"/>
<path d="M2000 3962 c0 -6 -8 -13 -17 -15 -16 -4 -16 -5 -1 -6 18 -1 34 16 24
26 -3 4 -6 1 -6 -5z"/>
<path d="M1830 3890 c0 -5 5 -10 11 -10 5 0 7 5 4 10 -3 6 -8 10 -11 10 -2 0
-4 -4 -4 -10z"/>
<path d="M4599 3873 c-13 -16 -12 -17 4 -4 16 13 21 21 13 21 -2 0 -10 -8 -17
-17z"/>
<path d="M2060 3870 c0 -5 5 -10 10 -10 6 0 10 5 10 10 0 6 -4 10 -10 10 -5 0
-10 -4 -10 -10z"/>
<path d="M1623 3835 c-3 -9 -3 -18 -1 -21 3 -3 8 4 11 16 6 23 -1 27 -10 5z"/>
<path d="M1447 3803 c-4 -3 -7 -11 -7 -17 0 -6 5 -5 12 2 6 6 9 14 7 17 -3 3
-9 2 -12 -2z"/>
<path d="M1457 3773 c-3 -5 -2 -15 2 -22 5 -7 11 -9 14 -4 3 5 2 15 -2 22 -5
7 -11 9 -14 4z"/>
<path d="M2035 3770 c-3 -5 -2 -10 4 -10 5 0 13 5 16 10 3 6 2 10 -4 10 -5 0
-13 -4 -16 -10z"/>
<path d="M1322 3740 c0 -14 2 -19 5 -12 2 6 2 18 0 25 -3 6 -5 1 -5 -13z"/>
<path d="M2784 3722 c-47 -7 -63 -41 -69 -142 -4 -52 -3 -100 2 -107 5 -6 20
-14 34 -18 57 -14 99 65 99 187 0 64 -20 88 -66 80z m30 -109 c-8 -107 -17
-133 -44 -133 -23 0 -23 0 -20 99 2 96 12 121 45 121 l25 0 -6 -87z"/>
<path d="M2947 3712 c-22 -24 -39 -71 -32 -92 3 -9 20 -23 38 -31 28 -12 32
-19 32 -54 0 -38 -2 -40 -32 -43 -30 -3 -33 -1 -33 22 0 30 -16 35 -25 7 -8
-27 4 -50 32 -57 36 -9 71 11 90 51 20 43 7 75 -38 92 -25 10 -29 17 -29 47 0
25 6 38 19 46 27 14 51 2 51 -26 0 -13 5 -24 10 -24 17 0 23 30 12 56 -9 18
-19 24 -45 24 -20 0 -41 -7 -50 -18z"/>
<path d="M3287 3698 c-31 -11 -64 -73 -88 -166 -11 -46 -11 -54 3 -68 20 -20
62 -21 84 -3 25 20 46 67 33 74 -6 4 -11 5 -12 4 -1 -2 -9 -17 -17 -34 -21
-40 -60 -42 -71 -2 -4 16 -3 25 2 21 5 -3 9 1 9 8 0 24 49 133 63 142 8 5 22
6 32 2 17 -6 17 -18 0 -59 -6 -15 -4 -18 11 -15 21 3 32 22 33 53 1 42 -34 60
-82 43z"/>
<path d="M2581 3681 c-13 -13 -23 -16 -34 -9 -10 5 -32 4 -56 -4 l-41 -13 0
-128 c0 -117 2 -128 18 -125 15 3 17 15 14 108 -3 112 8 150 42 137 13 -5 16
-24 16 -117 0 -91 3 -110 15 -110 13 0 15 20 15 120 0 100 3 122 16 127 29 11
36 -13 35 -120 -2 -105 3 -123 28 -108 10 7 12 34 8 117 -3 60 -8 117 -12 127
-9 22 -40 22 -64 -2z"/>
<path d="M1295 3680 c-3 -5 -1 -10 4 -10 6 0 11 5 11 10 0 6 -2 10 -4 10 -3 0
-8 -4 -11 -10z"/>
<path d="M3454 3641 c-11 -10 -38 -58 -59 -106 l-39 -87 23 -19 c42 -34 89
-20 118 34 28 52 63 141 63 159 0 37 -73 51 -106 19z m69 -34 c-1 -16 -17 -58
-35 -95 -27 -56 -38 -68 -60 -70 -38 -4 -37 18 3 105 38 84 47 95 73 91 16 -2
21 -9 19 -31z"/>
<path d="M1225 3630 c-3 -5 -1 -10 4 -10 6 0 11 5 11 10 0 6 -2 10 -4 10 -3 0
-8 -4 -11 -10z"/>
<path d="M4755 3629 c-11 -17 1 -21 15 -4 8 9 8 15 2 15 -6 0 -14 -5 -17 -11z"/>
<path d="M2286 3599 c-29 -23 -36 -69 -11 -69 10 0 15 10 15 30 0 25 4 30 24
30 17 0 26 -7 30 -26 6 -21 -1 -36 -29 -72 -39 -50 -45 -93 -19 -130 18 -26
36 -28 54 -7 7 8 21 15 31 15 23 0 24 31 4 143 -19 110 -43 130 -99 86z m78
-165 c1 -33 -4 -50 -16 -57 -40 -26 -62 53 -27 96 28 36 43 23 43 -39z"/>
<path d="M3636 3585 c-52 -80 -113 -196 -105 -201 13 -8 25 2 44 38 20 39 32
59 68 116 28 44 62 56 74 26 5 -15 -28 -86 -74 -154 -13 -19 -23 -40 -23 -47
0 -20 24 -15 35 6 6 11 29 54 53 96 58 106 56 122 -24 139 -26 6 -34 3 -48
-19z"/>
<path d="M1310 3560 c-8 -5 -12 -11 -9 -14 2 -3 11 -1 19 4 8 5 12 11 9 14 -2
3 -11 1 -19 -4z"/>
<path d="M4668 3563 c7 -3 16 -2 19 1 4 3 -2 6 -13 5 -11 0 -14 -3 -6 -6z"/>
<path d="M2120 3537 c-8 -7 -21 -24 -29 -39 -12 -24 -11 -36 15 -120 15 -51
33 -96 39 -100 37 -27 95 21 93 76 -2 52 -26 47 -30 -6 -2 -35 -7 -44 -25 -46
-18 -3 -24 4 -32 35 -15 51 -16 48 29 68 44 20 46 25 29 76 -22 63 -55 84 -89
56z m50 -43 c16 -41 12 -64 -12 -73 -20 -7 -25 -4 -36 23 -7 17 -10 41 -7 53
8 32 43 30 55 -3z"/>
<path d="M1948 3445 c-12 -14 -29 -25 -37 -25 -17 0 -10 -28 35 -142 19 -49
34 -92 34 -98 0 -5 5 -10 10 -10 20 0 21 29 2 67 -11 21 -20 41 -20 46 -1 4
-9 31 -18 61 -19 60 -14 86 15 86 15 0 26 -17 47 -72 51 -137 54 -142 66 -130
8 8 4 31 -17 89 -53 147 -75 172 -117 128z"/>
<path d="M3939 3430 c-25 -20 -11 -27 21 -10 24 13 50 3 50 -19 0 -30 -22 -41
-81 -41 -49 0 -61 -4 -89 -30 -40 -37 -40 -83 0 -88 14 -2 31 -11 37 -19 11
-15 17 -12 45 23 18 21 43 49 55 61 12 12 34 38 49 58 23 31 25 37 13 53 -31
38 -64 43 -100 12z m11 -102 c-1 -20 -46 -66 -66 -68 -50 -6 -59 17 -22 57 24
25 88 33 88 11z"/>
<path d="M2845 3424 c-182 -20 -393 -69 -520 -123 -391 -165 -679 -429 -845
-776 -228 -473 -186 -1012 112 -1447 63 -92 150 -194 222 -261 49 -46 220
-177 230 -177 4 0 22 -11 40 -25 49 -37 228 -119 351 -160 295 -98 654 -111
953 -34 363 93 624 251 859 518 194 221 313 478 353 762 6 41 11 137 11 214 0
204 -41 389 -127 573 -19 41 -34 76 -34 78 0 4 -11 22 -79 129 -28 44 -118
160 -166 214 -26 29 -117 110 -181 161 -212 169 -513 296 -789 335 -109 16
-324 26 -390 19z m303 -24 c623 -66 1145 -449 1356 -996 124 -320 120 -723 -8
-1034 -101 -243 -227 -413 -446 -605 -97 -85 -300 -204 -440 -258 -202 -78
-340 -106 -565 -114 -285 -10 -483 24 -735 125 -285 115 -560 343 -734 612
-109 167 -187 385 -212 589 -17 145 -17 206 0 352 51 425 293 808 667 1055
331 218 727 315 1117 274z"/>
<path d="M2745 3200 c-9 -54 -72 -147 -133 -199 -66 -56 -97 -114 -88 -164 11
-58 62 -116 136 -154 75 -38 115 -41 315 -22 104 10 128 9 184 -5 112 -29 119
-49 24 -66 -51 -10 -63 -15 -48 -21 18 -7 17 -8 -5 -8 -14 -1 -59 -10 -100
-20 -62 -15 -76 -16 -83 -5 -12 21 -22 17 -34 -16 -12 -32 -37 -40 -47 -15 -4
11 -13 14 -31 9 -30 -7 -195 16 -195 28 0 4 -6 8 -13 8 -15 0 -128 76 -139 94
-4 6 4 15 20 22 29 12 27 14 -27 30 -7 2 -10 11 -7 19 3 8 2 15 -3 15 -5 0
-12 16 -16 36 l-6 36 -20 -21 c-11 -11 -24 -21 -30 -21 -6 0 -7 -4 -4 -10 4
-6 -1 -7 -11 -3 -14 5 -16 3 -11 -11 6 -14 3 -17 -8 -12 -9 3 -14 2 -11 -3 7
-11 -29 -43 -38 -34 -4 4 -4 0 0 -10 4 -13 2 -16 -9 -12 -10 5 -15 -1 -15 -17
0 -13 -5 -42 -11 -65 -6 -23 -10 -47 -9 -54 2 -7 -5 -15 -15 -17 -15 -3 -18 1
-13 15 3 10 2 24 -3 31 -18 29 -167 -54 -239 -132 -88 -96 -82 -207 18 -319
37 -42 138 -117 157 -117 3 0 35 -12 71 -26 203 -81 727 -127 1068 -93 289 28
495 123 550 254 19 45 18 119 -2 160 -20 44 -85 109 -150 152 -29 19 -57 47
-63 62 -28 66 -118 133 -192 141 l-47 5 14 35 c15 37 83 90 116 90 22 0 22 4
1 42 -26 44 -102 94 -182 120 -70 23 -70 23 -77 65 -3 23 -15 51 -26 63 -11
12 -17 24 -14 28 13 12 74 -30 92 -64 21 -38 35 -33 27 10 -5 22 -16 33 -51
48 -25 11 -52 22 -61 23 -9 2 -18 4 -20 4 -2 1 13 19 33 41 36 40 46 57 24 44
-7 -4 -8 -3 -4 4 4 7 14 12 22 12 8 0 14 5 14 10 0 6 -3 10 -8 10 -15 0 -52
-31 -52 -44 0 -7 -9 -21 -20 -31 -19 -17 -20 -17 -31 9 -7 14 -21 28 -33 32
-12 3 -29 14 -40 23 -13 12 -38 16 -90 16 -67 0 -76 -3 -119 -35 -35 -26 -45
-40 -41 -55 4 -15 3 -16 -4 -6 -8 10 -14 7 -32 -17 -28 -38 -40 -33 -40 15 0
34 -35 103 -52 103 -3 0 -9 -18 -13 -40z m-111 -223 c-58 -64 -69 -120 -34
-172 34 -52 20 -76 -19 -34 -29 31 -37 99 -17 138 20 38 77 104 84 96 3 -3 -4
-15 -14 -28z m763 -77 c67 -23 125 -72 106 -91 -9 -9 -19 -4 -40 19 -32 34
-95 72 -121 72 -9 0 -24 5 -32 10 -27 17 21 12 87 -10z m-636 -206 c35 -9 80
-14 101 -11 21 3 41 1 44 -5 5 -7 -25 -9 -90 -6 -73 3 -100 8 -113 21 -21 21
-20 21 58 1z m-437 -215 c-1 -19 -5 -45 -9 -59 -5 -18 -4 -21 3 -11 8 11 11 9
17 -8 4 -13 4 -25 1 -28 -6 -7 -48 35 -73 74 -17 25 -16 26 12 49 38 30 50 26
49 -17z m1031 -75 c9 -7 23 -10 30 -8 7 3 16 1 20 -5 10 -17 -23 -25 -50 -13
-17 8 -26 24 -33 54 -5 24 -6 48 -3 53 3 6 8 -8 12 -29 3 -22 14 -45 24 -52z
m-221 45 c21 -31 11 -44 -34 -44 -43 0 -49 10 -28 45 17 26 43 25 62 -1z
m-426 -41 c7 -7 12 -23 12 -36 0 -25 -4 -25 -60 -11 -34 9 -38 36 -7 49 31 12
41 12 55 -2z m947 -32 c20 -31 10 -56 -24 -56 -44 0 -68 33 -31 43 11 3 20 12
20 21 0 23 17 20 35 -8z m-1285 -16 c0 -5 -4 -10 -10 -10 -5 0 -10 5 -10 10 0
6 5 10 10 10 6 0 10 -4 10 -10z m-280 -25 c0 -7 -8 -23 -19 -36 -18 -22 -19
-22 -45 -6 -33 22 -34 47 -2 47 14 0 27 4 31 10 8 12 35 1 35 -15z m358 -15
c7 0 12 -5 12 -10 0 -6 -16 -4 -37 5 -45 19 -47 21 -38 35 5 8 14 5 29 -9 12
-12 28 -21 34 -21z m64 -31 c12 -6 49 -20 82 -30 34 -9 52 -18 41 -18 -27 -2
-155 41 -155 51 0 11 7 10 32 -3z m205 -55 c-3 -3 -12 -4 -19 -1 -8 3 -5 6 6
6 11 1 17 -2 13 -5z m300 -31 c4 -10 11 -21 17 -25 7 -5 5 -13 -7 -25 -15 -15
-19 -16 -26 -4 -5 8 -16 11 -25 8 -9 -4 -19 1 -25 11 -7 13 -3 20 17 33 35 23
41 23 49 2z m618 -101 c-3 -8 -5 -20 -5 -29 0 -11 -7 -13 -32 -8 -46 10 -67
45 -28 45 11 0 23 7 26 15 5 11 9 12 25 2 11 -7 17 -18 14 -25z m-1152 -5 c32
-27 23 -50 -19 -45 -32 3 -43 30 -24 53 15 19 12 19 43 -8z m-237 -22 c12 -50
-8 -65 -60 -45 -33 12 -33 26 -1 34 14 4 25 13 25 21 0 25 29 17 36 -10z
m1078 9 c6 -16 -9 -54 -22 -54 -4 0 -18 7 -30 16 -28 20 -30 48 -2 41 11 -3
23 -1 26 4 8 14 21 11 28 -7z m-507 -49 c32 -29 27 -36 -27 -41 -32 -3 -40 0
-40 13 0 15 27 53 37 53 2 0 16 -11 30 -25z"/>
<path d="M2479 2813 c-11 -3 -15 -12 -11 -28 2 -14 8 -25 13 -25 5 0 9 -14 9
-31 0 -16 4 -28 9 -25 4 3 5 24 1 48 -5 23 -6 48 -3 55 3 7 4 12 2 12 -2 -1
-11 -3 -20 -6z"/>
<path d="M2552 2686 c13 -14 28 -12 28 5 0 5 -9 9 -20 9 -17 0 -19 -2 -8 -14z"/>
<path d="M2271 2628 c-5 -13 -11 -34 -15 -48 -6 -22 -5 -22 4 -7 14 21 31 77
24 77 -2 0 -8 -10 -13 -22z"/>
<path d="M2830 2540 c-9 -6 -10 -10 -3 -10 6 0 15 5 18 10 8 12 4 12 -15 0z"/>
<path d="M1877 1963 c-8 -13 2 -43 14 -43 10 0 10 8 0 34 -5 12 -10 16 -14 9z"/>
<path d="M3842 1850 c6 -19 38 -26 38 -9 0 7 -3 9 -7 6 -3 -4 -13 -1 -21 6
-13 10 -14 9 -10 -3z"/>
<path d="M3610 1831 c0 -25 6 -27 13 -6 4 8 2 17 -3 20 -6 4 -10 -3 -10 -14z"/>
<path d="M3998 1797 c-50 -79 -139 -143 -267 -191 -76 -29 -270 -66 -347 -66
-33 0 -54 -5 -57 -12 -4 -10 -7 -10 -18 0 -15 13 -33 17 -25 4 3 -5 -8 -7 -23
-4 -16 2 -39 -1 -51 -8 -15 -8 -101 -11 -278 -11 -272 -1 -408 9 -587 41 -112
21 -246 58 -210 60 16 0 17 2 5 10 -8 5 -24 7 -35 4 -11 -3 -29 2 -40 11 -20
16 -20 16 3 12 12 -3 19 -1 16 4 -3 5 -18 8 -33 7 -15 -1 -42 4 -59 11 -27 11
-30 16 -20 29 11 13 10 14 -9 8 -16 -5 -29 1 -53 24 -17 16 -36 30 -42 30 -6
0 -17 8 -25 18 -13 16 -14 16 -5 -2 9 -18 8 -55 -2 -183 -2 -24 0 -40 5 -37 5
2 11 -7 15 -21 7 -30 77 -90 116 -100 17 -4 32 -18 40 -36 7 -16 17 -29 21
-29 22 0 39 -32 33 -63 -4 -20 -3 -27 3 -18 10 15 15 4 27 -61 3 -21 11 -35
16 -32 6 4 8 -2 3 -15 -4 -12 -2 -27 3 -34 13 -15 42 -97 42 -118 0 -9 6 -19
14 -22 7 -3 17 -22 20 -42 10 -50 27 -86 39 -78 5 3 7 -6 2 -25 -4 -21 0 -42
13 -69 11 -21 25 -56 32 -78 15 -47 30 -62 90 -92 57 -27 123 -48 225 -70 112
-25 483 -25 638 0 168 27 357 97 357 132 0 19 28 101 51 149 11 22 19 49 19
61 0 11 4 25 9 30 11 12 55 134 82 230 11 38 25 73 31 76 6 4 8 16 5 28 -3 12
-2 21 2 21 4 0 18 29 30 65 13 36 29 65 36 65 7 0 15 7 19 15 4 11 22 15 69
15 58 0 67 3 100 33 39 34 77 117 77 168 0 62 -58 198 -85 199 -5 0 -22 -19
-37 -43z m-18 -216 c0 -14 -9 -20 -36 -23 -42 -5 -53 11 -34 47 12 23 14 23
41 9 16 -8 29 -23 29 -33z m95 -8 c-43 -81 -84 -104 -178 -102 l-62 2 60 7
c98 12 111 21 151 100 19 38 29 49 37 41 8 -8 6 -21 -8 -48z m-2065 22 c0 -7
7 -18 17 -23 21 -12 10 -47 -13 -38 -9 3 -24 6 -35 6 -21 0 -25 21 -9 51 12
22 40 26 40 4z m255 -156 c87 -23 143 -63 132 -94 -10 -24 -35 -18 -81 20 -48
39 -106 62 -186 74 l-55 9 75 1 c41 0 93 -4 115 -10z m669 2 c3 -4 0 -22 -7
-40 -14 -38 -35 -37 -57 2 -13 24 -13 29 0 37 19 12 57 13 64 1z m-354 -23 c0
-40 -15 -54 -47 -42 -34 11 -44 44 -14 44 11 0 23 5 26 10 12 19 35 10 35 -12z
m1116 -171 c-29 -86 -56 -160 -59 -164 -4 -3 -7 -15 -7 -25 0 -10 -4 -18 -10
-18 -5 0 -10 6 -10 14 0 8 5 18 10 21 6 3 10 15 10 26 0 11 9 41 21 65 11 25
24 69 29 97 18 106 44 168 61 150 4 -4 -16 -79 -45 -166z m58 58 c-19 -55 -44
-122 -55 -149 -21 -53 -24 -86 -9 -86 6 0 10 -5 10 -11 0 -8 -5 -8 -15 1 -8 7
-15 20 -15 29 0 12 43 155 96 320 3 9 8 11 14 5 6 -6 -4 -48 -26 -109z m68 79
c-28 -55 -89 -221 -96 -261 -3 -19 -16 -28 -16 -12 0 12 67 224 92 288 6 17
12 21 19 14 7 -7 7 -17 1 -29z m-132 17 c0 -19 -27 -71 -33 -64 -11 11 -8 48
5 61 14 14 28 16 28 3z m-407 -55 c32 -16 57 -30 55 -31 -2 -2 -37 8 -78 21
-83 28 -125 27 -190 -6 -20 -10 -40 -16 -44 -13 -14 14 -4 30 27 46 49 26 156
18 230 -17z m-1122 -101 c37 -117 49 -152 64 -187 4 -10 3 -18 -2 -18 -5 0
-33 72 -63 160 -29 88 -57 160 -62 160 -11 0 -12 2 32 -121 22 -62 40 -119 39
-128 0 -12 -3 -11 -9 4 -21 49 -78 202 -84 226 -5 23 -3 26 21 25 24 -1 28 -9
64 -121z m60 -43 c55 -194 53 -189 41 -177 -6 6 -27 62 -47 125 -20 63 -41
122 -45 131 -5 9 -12 33 -15 53 -6 29 -5 35 7 31 9 -4 32 -67 59 -163z m560
153 c16 -9 40 -33 54 -55 35 -55 65 -73 109 -64 32 5 36 4 36 -14 0 -50 -96
-38 -140 18 -17 21 -30 42 -30 47 0 13 -29 45 -60 66 -31 21 -9 22 31 2z
m-537 -38 c8 -18 22 -63 30 -102 20 -85 30 -124 51 -194 16 -54 16 -72 -1 -49
-11 14 -17 33 -59 173 -15 50 -35 113 -44 141 -26 76 -8 100 23 31z m1254 7
c30 -20 28 -30 -9 -48 -35 -17 -62 -7 -53 20 2 8 6 21 9 29 6 19 25 19 53 -1z
m-772 -63 c6 -30 12 -99 13 -154 1 -54 3 -104 4 -110 1 -7 -7 -12 -17 -12 -13
0 -20 8 -22 25 -16 123 -37 259 -44 277 -11 26 -3 35 29 31 21 -3 26 -11 37
-57z m-412 33 c11 -10 16 -33 16 -67 0 -58 -12 -51 -31 16 -5 21 -13 45 -16
53 -7 19 12 18 31 -2z m316 -140 c11 -123 17 -150 34 -169 24 -25 97 -65 121
-65 8 0 15 -4 15 -9 0 -20 -135 34 -151 61 -7 10 -9 9 -9 -4 0 -10 -7 -18 -15
-18 -10 0 -15 10 -15 26 0 15 -12 87 -27 162 l-27 134 23 19 c13 10 26 17 30
14 4 -2 14 -70 21 -151z m585 135 c5 -6 5 -9 -2 -9 -6 0 -13 -35 -17 -82 -12
-141 -29 -212 -50 -216 -15 -3 -17 1 -13 25 3 15 7 87 9 158 2 72 8 133 13
137 11 8 45 1 60 -13z m348 -103 c-20 -26 -84 -53 -102 -42 -24 15 -11 36 22
36 44 0 77 35 85 92 l7 43 3 -52 c2 -39 -2 -59 -15 -77z m-466 97 c-7 -11 -25
-184 -31 -286 -2 -43 -19 -72 -36 -62 -3 2 -3 60 0 131 4 89 9 129 18 132 6 2
12 15 12 28 0 30 17 64 31 64 6 0 8 -3 6 -7z m-640 -25 c-3 -8 -6 -5 -6 6 -1
11 2 17 5 13 3 -3 4 -12 1 -19z m837 -14 c20 -20 20 -22 -4 -135 -10 -52 -20
-109 -22 -127 -3 -36 -8 -40 -24 -14 -7 11 -8 47 -2 107 4 50 10 110 12 135 2
25 4 46 5 48 3 7 22 0 35 -14z m-826 -137 c7 -16 12 -44 12 -63 0 -27 -4 -34
-19 -34 -16 0 -19 7 -19 33 1 17 -3 62 -7 99 -4 36 -4 75 1 85 6 13 9 3 14
-37 4 -30 12 -68 18 -83z m65 73 c3 -11 1 -23 -4 -26 -5 -3 -9 6 -9 20 0 31 6
34 13 6z m317 -125 c0 -51 3 -100 6 -109 7 -19 -6 -21 -28 -3 -12 9 -17 40
-22 125 l-7 113 25 -17 c25 -16 26 -21 26 -109z m526 101 c3 -14 -1 -56 -10
-95 -9 -38 -16 -81 -16 -93 0 -22 4 -24 36 -20 20 3 31 8 25 12 -19 11 9 142
29 137 16 -3 16 -10 0 -76 -11 -47 -8 -71 10 -71 6 0 8 5 5 10 -3 6 0 10 8 10
8 0 17 12 20 28 14 69 24 97 32 92 6 -3 9 -9 8 -15 -1 -5 -6 -32 -11 -58 l-10
-49 29 4 c15 3 26 1 23 -4 -3 -4 -19 -8 -36 -8 -73 0 6 -18 95 -22 22 -1 27
-5 26 -27 0 -14 -3 -20 -6 -13 -8 19 -20 14 -27 -11 -4 -16 -18 -28 -46 -37
-22 -7 -43 -10 -47 -7 -3 4 0 7 9 7 21 0 78 30 78 41 0 11 -30 12 -48 0 -8 -4
-13 -12 -13 -17 0 -5 -7 -9 -16 -9 -9 0 -18 -6 -21 -13 -2 -6 -18 -13 -35 -13
l-32 -1 30 -7 c29 -7 28 -8 -28 -25 -32 -10 -65 -15 -73 -12 -8 3 -13 2 -10
-3 5 -8 -83 -27 -88 -19 -1 2 -1 38 2 81 4 66 7 77 22 77 22 0 25 10 40 115
15 113 20 135 31 135 5 0 11 -11 15 -24z m-417 -131 c-1 -100 -9 -139 -25
-122 -9 8 -20 178 -15 230 1 4 10 7 21 7 19 0 20 -6 19 -115z m636 68 c-4 -16
-8 -34 -8 -40 0 -7 -6 -13 -13 -13 -8 0 -12 6 -10 13 3 6 7 24 10 40 4 15 11
27 17 27 7 0 9 -10 4 -27z m-1401 -55 c-11 -17 -19 -6 -21 25 l-2 32 14 -25
c7 -14 11 -28 9 -32z m1476 12 c0 -5 -5 -10 -11 -10 -5 0 -7 5 -4 10 3 6 8 10
11 10 2 0 4 -4 4 -10z m-90 -35 c0 -8 -4 -15 -9 -15 -13 0 -22 16 -14 24 11
11 23 6 23 -9z m40 11 c0 -3 -4 -8 -10 -11 -5 -3 -10 -1 -10 4 0 6 5 11 10 11
6 0 10 -2 10 -4z m60 -30 c0 -3 -4 -8 -10 -11 -5 -3 -10 -1 -10 4 0 6 5 11 10
11 6 0 10 -2 10 -4z m-1413 -68 c3 -21 -13 -23 -31 -5 -11 10 -13 32 -7 67 2
10 36 -46 38 -62z m293 27 c0 -31 3 -35 25 -35 24 0 25 -3 26 -60 2 -70 2 -71
12 -87 5 -7 5 -13 1 -13 -25 0 -241 44 -250 51 -5 4 -20 6 -32 2 -13 -3 -22
-1 -22 6 0 6 8 11 18 12 14 0 14 2 -3 8 -11 5 -23 4 -26 -2 -4 -6 -17 -6 -35
1 -29 10 -29 10 -4 12 56 5 83 9 89 16 3 4 -16 4 -42 2 -33 -4 -47 -2 -44 6 2
6 12 11 22 11 10 0 20 6 22 13 3 6 -2 12 -11 12 -17 0 -20 9 -8 26 11 17 179
16 196 -2 18 -17 35 -18 38 -1 0 6 2 17 3 22 2 6 3 16 4 23 3 29 21 9 21 -23z
m1046 20 c9 -8 11 -15 6 -15 -5 0 -15 7 -22 15 -7 8 -9 15 -6 15 4 0 14 -7 22
-15z m-401 -15 c-3 -5 -12 -10 -18 -10 -7 0 -6 4 3 10 19 12 23 12 15 0z m-49
-25 c-11 -8 -25 -15 -30 -15 -6 0 -2 7 8 15 11 8 25 15 30 15 6 0 2 -7 -8 -15z
m-108 -193 c-16 -2 -40 -2 -55 0 l-28 4 25 11 c18 7 34 7 55 -1 l30 -11 -27
-3z m-153 8 c16 -7 13 -9 -17 -9 -21 -1 -38 4 -38 9 0 12 27 12 55 0z m466
-13 c-10 -9 -11 -8 -5 6 3 10 9 15 12 12 3 -3 0 -11 -7 -18z m-606 -7 c-27 -5
-63 -8 -80 -8 -25 1 -23 2 10 8 22 4 58 7 80 7 38 0 37 0 -10 -7z m448 -7 c-7
-2 -21 -2 -30 0 -10 3 -4 5 12 5 17 0 24 -2 18 -5z m84 -15 c-3 -8 -6 -5 -6 6
-1 11 2 17 5 13 3 -3 4 -12 1 -19z m-440 -50 c-2 -13 -4 -3 -4 22 0 25 2 35 4
23 2 -13 2 -33 0 -45z"/>
<path d="M2408 923 c7 -3 16 -2 19 1 4 3 -2 6 -13 5 -11 0 -14 -3 -6 -6z"/>
<path d="M2458 923 c7 -3 16 -2 19 1 4 3 -2 6 -13 5 -11 0 -14 -3 -6 -6z"/>
<path d="M2413 893 c9 -2 25 -2 35 0 9 3 1 5 -18 5 -19 0 -27 -2 -17 -5z"/>
<path d="M2378 873 c7 -3 16 -2 19 1 4 3 -2 6 -13 5 -11 0 -14 -3 -6 -6z"/>
<path d="M3040 1801 c0 -5 7 -12 16 -15 14 -5 15 -4 4 9 -14 17 -20 19 -20 6z"/>
<path d="M3590 1770 c-13 -8 -12 -10 3 -10 9 0 17 5 17 10 0 12 -1 12 -20 0z"/>
<path d="M3093 1755 c0 -8 6 -15 14 -15 7 0 13 7 13 15 0 8 -6 15 -13 15 -8 0
-14 -7 -14 -15z"/>
<path d="M2340 1716 c0 -2 7 -9 15 -16 12 -10 15 -10 15 4 0 9 -7 16 -15 16
-8 0 -15 -2 -15 -4z"/>
<path d="M2285 1700 c-3 -6 1 -7 9 -4 18 7 21 14 7 14 -6 0 -13 -4 -16 -10z"/>
<path d="M2693 1664 c4 -4 2 -13 -4 -21 -7 -8 -8 -13 -1 -13 5 0 15 6 21 14 9
11 8 15 -6 20 -10 4 -14 4 -10 0z"/>
<path d="M1815 1590 c3 -5 8 -10 11 -10 2 0 4 5 4 10 0 6 -5 10 -11 10 -5 0
-7 -4 -4 -10z"/>
<path d="M2218 1593 c7 -3 16 -2 19 1 4 3 -2 6 -13 5 -11 0 -14 -3 -6 -6z"/>
<path d="M3320 1571 c0 -18 18 -21 30 -6 10 13 9 15 -9 15 -11 0 -21 -4 -21
-9z"/>
<path d="M1778 3335 c-6 -14 -17 -25 -25 -25 -20 0 -17 -11 38 -127 58 -124
56 -120 70 -106 7 7 -4 39 -36 102 -48 95 -55 143 -23 149 10 2 24 -11 39 -37
12 -23 26 -41 31 -41 16 0 8 41 -14 75 -28 43 -63 47 -80 10z"/>
<path d="M4063 3298 c-31 -29 -67 -63 -79 -75 -13 -13 -28 -23 -34 -23 -5 0
-10 -7 -10 -15 0 -23 23 -18 57 13 17 15 52 46 78 70 47 42 77 52 91 31 4 -6
-30 -46 -81 -94 -64 -60 -83 -84 -72 -88 9 -3 29 7 50 26 19 18 58 52 86 77
29 25 54 47 56 49 6 5 35 -20 35 -30 0 -10 -92 -101 -138 -137 -28 -21 -31
-27 -17 -34 15 -9 29 2 163 130 33 31 26 64 -15 77 -18 5 -33 15 -33 22 0 14
-34 35 -43 26 -4 -3 -9 2 -13 11 -10 25 -21 20 -81 -36z"/>
<path d="M1623 3211 c-36 -30 -29 -70 24 -156 26 -42 55 -81 65 -86 34 -18 78
23 78 73 0 34 -100 182 -125 185 -11 2 -30 -6 -42 -16z m91 -83 c46 -72 58
-121 32 -131 -17 -7 -41 20 -89 100 -41 67 -42 74 -25 91 22 22 36 12 82 -60z"/>
<path d="M1436 3202 c-4 -7 13 -38 39 -72 36 -46 46 -67 41 -84 -5 -20 -34
-43 -41 -34 -45 63 -89 118 -95 118 -19 0 -17 -16 8 -49 15 -20 29 -38 32 -41
3 -3 17 -21 30 -40 13 -19 27 -37 30 -40 3 -3 28 -35 55 -72 44 -60 75 -84 75
-60 0 7 -66 98 -101 140 -9 11 -6 20 13 39 l25 25 29 -38 c16 -22 35 -45 41
-52 7 -7 19 -23 28 -35 9 -13 18 -18 24 -12 9 9 -58 107 -167 244 -58 74 -59
75 -66 63z"/>
<path d="M4290 3132 c-14 -9 -27 -19 -30 -22 -3 -4 -26 -21 -52 -39 -53 -35
-62 -65 -30 -94 32 -29 82 -21 139 21 28 20 62 46 77 56 74 53 -27 130 -104
78z m84 -8 c30 -12 16 -40 -41 -80 -80 -56 -101 -66 -123 -59 -39 12 -22 41
56 94 79 53 83 55 108 45z"/>
<path d="M4410 2979 c-120 -65 -143 -80 -131 -92 6 -6 26 0 58 18 144 82 160
87 183 60 15 -18 1 -39 -43 -62 -20 -10 -26 -18 -19 -25 17 -17 102 41 102 70
0 12 -4 22 -9 22 -5 0 -19 11 -32 25 -13 13 -26 25 -29 25 -3 0 -39 -19 -80
-41z"/>
<path d="M1787 333 c-10 -17 -57 -246 -52 -252 9 -9 22 18 29 59 5 32 10 38
35 43 35 7 60 40 68 92 5 30 2 41 -12 51 -20 15 -61 19 -68 7z m59 -54 c-9
-56 -23 -79 -47 -79 -20 0 -21 4 -14 46 10 66 14 74 42 74 24 0 25 -2 19 -41z"/>
<path d="M2154 298 c-5 -26 -14 -42 -21 -41 -16 4 -17 -14 -2 -19 10 -3 2 -74
-17 -140 -3 -10 -1 -18 4 -18 6 0 18 36 28 80 14 66 20 80 36 80 11 0 16 5 13
10 -4 6 -11 7 -17 4 -7 -5 -9 8 -4 40 9 58 -7 61 -20 4z"/>
<path d="M2362 323 c-6 -10 -13 -38 -17 -63 -4 -25 -13 -70 -21 -100 -16 -62
-17 -80 -6 -80 7 0 42 132 58 223 7 39 1 48 -14 20z"/>
<path d="M3115 283 c-4 -32 -13 -76 -20 -98 -22 -70 -26 -105 -11 -105 9 0 16
19 21 55 7 60 15 70 46 60 18 -6 20 -12 14 -43 -3 -21 -8 -45 -11 -54 -3 -10
-1 -18 4 -18 14 0 33 91 25 118 -3 12 -1 22 5 22 6 0 15 21 20 47 13 59 3 73
-48 73 l-38 0 -7 -57z m75 2 c0 -35 -31 -80 -51 -73 -13 4 -13 2 -4 61 6 41
10 47 31 47 21 0 24 -5 24 -35z"/>
<path d="M3770 300 c-6 -24 -17 -40 -25 -40 -18 0 -20 -17 -4 -22 9 -3 8 -23
-1 -77 -7 -40 -10 -75 -7 -78 5 -5 15 26 37 115 7 29 16 42 28 42 15 1 15 2 1
13 -11 8 -14 23 -11 50 6 49 -4 47 -18 -3z"/>
<path d="M2671 304 c-7 -8 -11 -17 -9 -20 3 -2 13 5 23 16 10 11 14 20 9 20
-5 -1 -15 -8 -23 -16z"/>
<path d="M4095 300 c-10 -11 -14 -20 -8 -20 5 0 18 9 28 20 10 11 14 20 8 20
-5 0 -18 -9 -28 -20z"/>
<path d="M1902 244 c-12 -8 -22 -21 -22 -27 0 -7 7 -4 14 6 19 25 46 22 46 -5
0 -16 -11 -29 -37 -43 -24 -13 -39 -30 -45 -50 -10 -38 7 -55 48 -48 29 5 31
7 45 84 18 98 5 121 -49 83z m28 -89 c0 -28 -24 -66 -39 -63 -24 5 -25 34 -2
57 25 25 41 27 41 6z"/>
<path d="M2027 253 c-39 -10 -41 -93 -2 -93 20 0 28 -17 21 -46 -8 -30 -46
-34 -46 -4 0 27 -16 25 -23 -2 -7 -26 -9 -25 25 -33 19 -5 32 -1 47 14 28 28
26 57 -4 77 -17 11 -25 25 -25 45 0 24 4 29 25 29 17 0 25 -6 25 -17 0 -13 3
-14 11 -6 7 7 9 19 6 27 -6 16 -24 18 -60 9z"/>
<path d="M2231 246 c-14 -16 -41 -103 -41 -132 0 -47 58 -56 81 -12 16 29 2
34 -20 7 -24 -30 -47 -14 -37 25 5 22 12 26 40 26 32 0 35 2 41 41 5 30 3 44
-6 50 -21 13 -45 11 -58 -5z m49 -35 c0 -30 -26 -46 -49 -31 -19 11 5 60 29
60 15 0 20 -7 20 -29z"/>
<path d="M2418 248 c-9 -7 -24 -41 -32 -74 -19 -75 -19 -69 0 -89 25 -25 73
-3 74 33 0 20 -17 14 -23 -8 -3 -11 -12 -20 -21 -20 -12 0 -16 10 -16 34 0 33
2 35 37 38 35 3 38 6 44 40 8 53 -24 76 -63 46z m42 -38 c0 -33 -24 -50 -42
-32 -17 17 -1 62 22 62 16 0 20 -7 20 -30z"/>
<path d="M2545 251 c-15 -6 -23 -27 -36 -89 -11 -58 -13 -82 -5 -82 6 0 18 35
26 77 13 69 18 78 39 81 21 3 23 1 19 -28 -6 -37 9 -51 18 -16 13 54 -11 77
-61 57z"/>
<path d="M2649 258 c-14 -60 -35 -174 -33 -177 9 -10 17 12 33 89 10 44 14 83
9 86 -4 3 -8 4 -9 2z"/>
<path d="M2712 248 c-7 -7 -12 -19 -12 -27 1 -13 3 -12 15 3 16 21 45 15 45
-9 0 -8 -15 -24 -32 -35 -49 -28 -58 -38 -58 -63 0 -32 16 -44 49 -39 26 4 29
9 45 79 12 57 14 79 5 89 -14 17 -41 18 -57 2z m30 -109 c-5 -29 -20 -49 -38
-49 -19 0 -18 45 2 65 22 22 40 14 36 -16z"/>
<path d="M2971 239 c-4 -13 -14 -50 -21 -82 -11 -57 -34 -83 -50 -58 -4 7 -1
40 6 74 16 75 16 77 5 77 -12 0 -42 -136 -35 -155 4 -8 17 -15 30 -15 19 0 24
-5 24 -24 0 -28 -15 -42 -50 -49 -19 -3 -17 -5 11 -6 44 -1 51 11 79 150 20
97 21 138 1 88z"/>
<path d="M3263 250 c-16 -7 -25 -25 -36 -76 -21 -90 -6 -120 43 -94 27 14 46
50 27 50 -8 0 -17 -9 -20 -20 -5 -20 -31 -28 -40 -12 -3 4 -3 19 0 34 4 23 11
27 41 30 33 3 37 7 43 38 11 52 -9 70 -58 50z m37 -40 c0 -33 -24 -50 -42 -32
-17 17 -1 62 22 62 16 0 20 -7 20 -30z"/>
<path d="M3371 245 c-7 -9 -51 -211 -51 -235 0 -5 4 -10 9 -10 5 0 11 18 15
41 5 31 10 40 22 35 40 -15 76 49 78 137 1 41 0 42 -32 42 -18 1 -37 -4 -41
-10z m55 -47 c-12 -75 -26 -108 -47 -108 -22 0 -23 2 -7 85 11 59 15 65 37 65
22 0 23 -2 17 -42z"/>
<path d="M3509 247 c-17 -13 -39 -89 -39 -136 0 -31 23 -47 53 -36 30 12 66
147 46 171 -14 17 -39 18 -60 1z m37 -63 c-8 -66 -20 -94 -43 -94 -13 0 -15 8
-10 48 8 65 23 102 43 102 14 0 16 -8 10 -56z"/>
<path d="M3627 242 c-24 -26 -21 -59 7 -77 28 -18 38 -49 23 -64 -19 -19 -45
-12 -50 12 -3 19 -4 20 -11 4 -15 -32 1 -50 36 -43 37 7 48 20 48 57 0 17 -8
30 -25 39 -34 18 -32 63 3 68 15 2 22 -2 22 -12 0 -9 5 -16 10 -16 11 0 13 11
4 34 -8 22 -47 20 -67 -2z"/>
<path d="M3846 247 c-19 -14 -49 -122 -40 -149 2 -9 12 -19 21 -22 20 -8 63
19 63 39 0 22 -17 18 -23 -5 -5 -21 -31 -27 -42 -10 -3 5 -3 21 1 35 5 21 12
25 40 25 29 0 35 4 40 28 3 15 7 32 9 38 9 30 -38 44 -69 21z m44 -36 c0 -17
-6 -31 -16 -35 -26 -10 -34 -7 -34 13 0 33 11 51 31 51 14 0 19 -7 19 -29z"/>
<path d="M3941 171 c-11 -47 -17 -88 -15 -91 8 -7 24 23 24 45 0 11 6 40 14
65 10 34 19 46 36 48 21 4 22 1 17 -32 -7 -41 7 -49 17 -10 11 44 -1 62 -39
61 l-34 -1 -20 -85z"/>
<path d="M4075 233 c-4 -15 -10 -47 -16 -70 -10 -48 -12 -89 -2 -80 11 12 40
167 32 173 -5 3 -11 -8 -14 -23z"/>
<path d="M4142 248 c-7 -7 -12 -19 -12 -27 1 -13 2 -13 11 2 5 9 19 17 30 17
33 0 20 -40 -20 -61 -39 -21 -51 -35 -51 -65 0 -29 16 -41 49 -36 26 3 29 9
45 78 14 59 15 78 6 89 -15 18 -42 19 -58 3z m27 -110 c-8 -29 -24 -47 -41
-48 -16 0 -8 59 10 69 32 19 41 13 31 -21z"/>
</g>
</svg>
